<svg width="31" height="31" viewBox="0 0 31 31" fill="none" xmlns="http://www.w3.org/2000/svg">
<circle cx="15.5" cy="15.5" r="15.5" fill="#D3D3D3"/>
<path fill-rule="evenodd" clip-rule="evenodd" d="M23.5001 13.2198C23.5001 15.8268 21.3776 17.9403 18.7601 17.9403C18.2831 17.9403 17.1956 17.8307 16.6668 17.3912L16.0053 18.0497C15.6161 18.4375 15.7211 18.5515 15.8943 18.739C15.9663 18.8177 16.0503 18.9085 16.1156 19.0382C16.1156 19.0382 16.6668 19.8063 16.1156 20.575C15.7848 21.0138 14.8586 21.628 13.8011 20.575L13.5806 20.794C13.5806 20.794 14.2413 21.5627 13.6908 22.3315C13.3601 22.7702 12.4781 23.209 11.7063 22.441L10.9353 23.209C10.4058 23.7362 9.75934 23.4288 9.50284 23.209L8.84059 22.5505C8.22334 21.9355 8.58334 21.2695 8.84059 21.013L14.5721 15.3055C14.5721 15.3055 14.0208 14.428 14.0208 13.2205C14.0208 10.6135 16.1433 8.5 18.7608 8.5C21.3783 8.5 23.5001 10.6135 23.5001 13.2198ZM18.7608 14.8668C19.1983 14.8675 19.6182 14.6946 19.9282 14.3859C20.2382 14.0772 20.4128 13.658 20.4138 13.2205C20.4134 13.0038 20.3704 12.7893 20.2871 12.5893C20.2038 12.3893 20.0819 12.2076 19.9284 12.0547C19.775 11.9017 19.5928 11.7805 19.3925 11.6979C19.1922 11.6154 18.9775 11.5731 18.7608 11.5735C18.5442 11.5731 18.3295 11.6154 18.1292 11.6979C17.9288 11.7805 17.7467 11.9017 17.5932 12.0547C17.4397 12.2076 17.3179 12.3893 17.2346 12.5893C17.1513 12.7893 17.1082 13.0038 17.1078 13.2205C17.1088 13.658 17.2835 14.0772 17.5935 14.3859C17.9035 14.6946 18.3234 14.8675 18.7608 14.8668Z" fill="#333333"/>
</svg>
