<svg width="31" height="31" viewBox="0 0 31 31" fill="none" xmlns="http://www.w3.org/2000/svg">
<circle cx="15.5" cy="15.5" r="15.5" fill="#D3D3D3"/>
<path d="M18.8125 20.2188V16.5625H13.7148C13.5657 16.5625 13.4226 16.5032 13.3171 16.3977C13.2116 16.2923 13.1523 16.1492 13.1523 16C13.1523 15.8508 13.2116 15.7077 13.3171 15.6023C13.4226 15.4968 13.5657 15.4375 13.7148 15.4375H18.8125V11.7812C18.8119 11.2593 18.6043 10.7588 18.2353 10.3898C17.8662 10.0207 17.3657 9.81306 16.8438 9.8125H10.0938C9.57178 9.81306 9.07134 10.0207 8.70225 10.3898C8.33316 10.7588 8.12556 11.2593 8.125 11.7812V20.2188C8.12556 20.7407 8.33316 21.2412 8.70225 21.6103C9.07134 21.9793 9.57178 22.1869 10.0938 22.1875H16.8438C17.3657 22.1869 17.8662 21.9793 18.2353 21.6103C18.6043 21.2412 18.8119 20.7407 18.8125 20.2188ZM21.9544 16.5625L20.1024 18.4149C20.0013 18.5212 19.9459 18.6628 19.9477 18.8095C19.9496 18.9562 20.0087 19.0963 20.1124 19.2001C20.2162 19.3038 20.3563 19.3629 20.503 19.3648C20.6497 19.3666 20.7913 19.3112 20.8976 19.2101L23.7101 16.3976C23.8155 16.2921 23.8747 16.1491 23.8747 16C23.8747 15.8509 23.8155 15.7079 23.7101 15.6024L20.8976 12.7899C20.7913 12.6888 20.6497 12.6334 20.503 12.6352C20.3563 12.6371 20.2162 12.6962 20.1124 12.7999C20.0087 12.9037 19.9496 13.0438 19.9477 13.1905C19.9459 13.3372 20.0013 13.4788 20.1024 13.5851L21.9544 15.4375H18.8125V16.5625H21.9544Z" fill="#333333"/>
</svg>
