<svg width="30" height="30" viewBox="0 0 30 30" fill="none" xmlns="http://www.w3.org/2000/svg">
<path d="M21.1477 20.1193C21.1477 20.4943 21.0152 20.8163 20.75 21.0852C20.4811 21.3504 20.1591 21.483 19.7841 21.483C19.4129 21.483 19.0947 21.3504 18.8295 21.0852C18.5644 20.8163 18.4318 20.4943 18.4318 20.1193C18.4318 19.7557 18.5644 19.4375 18.8295 19.1648C19.0947 18.892 19.4129 18.7557 19.7841 18.7557C20.0341 18.7557 20.2633 18.8201 20.4716 18.9489C20.6761 19.0739 20.8409 19.2386 20.9659 19.4432C21.0871 19.6477 21.1477 19.8731 21.1477 20.1193ZM21.1477 15.3537C21.1477 15.7287 21.0152 16.0507 20.75 16.3196C20.4811 16.5848 20.1591 16.7173 19.7841 16.7173C19.4129 16.7173 19.0947 16.5848 18.8295 16.3196C18.5644 16.0507 18.4318 15.7287 18.4318 15.3537C18.4318 14.9901 18.5644 14.6719 18.8295 14.3991C19.0947 14.1264 19.4129 13.9901 19.7841 13.9901C20.0341 13.9901 20.2633 14.0545 20.4716 14.1832C20.6761 14.3082 20.8409 14.473 20.9659 14.6776C21.0871 14.8821 21.1477 15.1075 21.1477 15.3537ZM21.1477 10.5881C21.1477 10.9631 21.0152 11.285 20.75 11.554C20.4811 11.8191 20.1591 11.9517 19.7841 11.9517C19.4129 11.9517 19.0947 11.8191 18.8295 11.554C18.5644 11.285 18.4318 10.9631 18.4318 10.5881C18.4318 10.2244 18.5644 9.90625 18.8295 9.63352C19.0947 9.3608 19.4129 9.22443 19.7841 9.22443C20.0341 9.22443 20.2633 9.28883 20.4716 9.41761C20.6761 9.54261 20.8409 9.70739 20.9659 9.91193C21.0871 10.1165 21.1477 10.3419 21.1477 10.5881Z" fill="#333333"/>
</svg>
