<svg width="31" height="31" viewBox="0 0 31 31" fill="none" xmlns="http://www.w3.org/2000/svg">
<circle cx="15.5" cy="15.5" r="15.5" fill="#D3D3D3"/>
<path d="M15.375 12.5392C14.595 12.7525 14.125 13.3517 14.125 13.9167C14.125 14.4817 14.595 15.0808 15.375 15.2933V12.5392ZM16.625 16.7067V19.46C17.405 19.2475 17.875 18.6483 17.875 18.0833C17.875 17.5183 17.405 16.9192 16.625 16.7067Z" fill="#333333"/>
<path fill-rule="evenodd" clip-rule="evenodd" d="M24.3334 16C24.3334 20.6025 20.6026 24.3333 16.0001 24.3333C11.3976 24.3333 7.66675 20.6025 7.66675 16C7.66675 11.3975 11.3976 7.66666 16.0001 7.66666C20.6026 7.66666 24.3334 11.3975 24.3334 16ZM16.0001 10.375C16.1658 10.375 16.3248 10.4408 16.442 10.558C16.5592 10.6753 16.6251 10.8342 16.6251 11V11.2642C17.9834 11.5075 19.1251 12.5283 19.1251 13.9167C19.1251 14.0824 19.0592 14.2414 18.942 14.3586C18.8248 14.4758 18.6658 14.5417 18.5001 14.5417C18.3343 14.5417 18.1754 14.4758 18.0581 14.3586C17.9409 14.2414 17.8751 14.0824 17.8751 13.9167C17.8751 13.3517 17.4051 12.7525 16.6251 12.5392V15.4308C17.9834 15.6742 19.1251 16.695 19.1251 18.0833C19.1251 19.4717 17.9834 20.4925 16.6251 20.7358V21C16.6251 21.1657 16.5592 21.3247 16.442 21.4419C16.3248 21.5591 16.1658 21.625 16.0001 21.625C15.8343 21.625 15.6754 21.5591 15.5581 21.4419C15.4409 21.3247 15.3751 21.1657 15.3751 21V20.7358C14.0167 20.4925 12.8751 19.4717 12.8751 18.0833C12.8751 17.9176 12.9409 17.7586 13.0581 17.6414C13.1754 17.5242 13.3343 17.4583 13.5001 17.4583C13.6658 17.4583 13.8248 17.5242 13.942 17.6414C14.0592 17.7586 14.1251 17.9176 14.1251 18.0833C14.1251 18.6483 14.5951 19.2475 15.3751 19.46V16.5692C14.0167 16.3258 12.8751 15.305 12.8751 13.9167C12.8751 12.5283 14.0167 11.5075 15.3751 11.2642V11C15.3751 10.8342 15.4409 10.6753 15.5581 10.558C15.6754 10.4408 15.8343 10.375 16.0001 10.375Z" fill="#333333"/>
</svg>
