<svg width="26" height="26" viewBox="0 0 26 26" fill="none" xmlns="http://www.w3.org/2000/svg">
<path fill-rule="evenodd" clip-rule="evenodd" d="M11.9167 5.25416C9.53883 4.147 5.93675 3.55875 2.56433 6.31475C2.44009 6.41634 2.33997 6.54426 2.27121 6.68927C2.20245 6.83428 2.16677 6.99276 2.16675 7.15325V20.5833C2.16678 20.7884 2.22499 20.9892 2.33463 21.1624C2.44426 21.3357 2.60081 21.4743 2.78609 21.5621C2.97136 21.6499 3.17776 21.6834 3.38128 21.6585C3.58481 21.6337 3.7771 21.5516 3.93583 21.4218C6.89983 18.9995 10.1477 20.0027 11.9167 21.1456V5.25416ZM14.0834 5.25416V21.1456C15.8525 20.0016 19.0992 18.9995 22.0643 21.4218C22.2231 21.5516 22.4154 21.6337 22.6189 21.6585C22.8224 21.6834 23.0288 21.6499 23.2141 21.5621C23.3994 21.4743 23.5559 21.3357 23.6655 21.1624C23.7752 20.9892 23.8334 20.7884 23.8334 20.5833V7.15325C23.8334 6.99276 23.7977 6.83428 23.729 6.68927C23.6602 6.54426 23.5601 6.41634 23.4358 6.31475C20.0634 3.55875 16.4613 4.14808 14.0834 5.25416Z" fill="#333333"/>
</svg>
